<?xml version="1.0" encoding="UTF-8" standalone="no"?>
<!-- Created with Inkscape (http://www.inkscape.org/) -->

<svg
   width="210mm"
   height="297mm"
   viewBox="0 0 210 297"
   version="1.1"
   id="svg1"
   inkscape:version="1.3.2 (091e20e, 2023-11-25)"
   sodipodi:docname="BrainBlack.svg"
   xmlns:inkscape="http://www.inkscape.org/namespaces/inkscape"
   xmlns:sodipodi="http://sodipodi.sourceforge.net/DTD/sodipodi-0.dtd"
   xmlns="http://www.w3.org/2000/svg"
   xmlns:svg="http://www.w3.org/2000/svg">
  <sodipodi:namedview
     id="namedview1"
     pagecolor="#ffffff"
     bordercolor="#000000"
     borderopacity="0.25"
     inkscape:showpageshadow="2"
     inkscape:pageopacity="0.0"
     inkscape:pagecheckerboard="0"
     inkscape:deskcolor="#d1d1d1"
     inkscape:document-units="mm"
     inkscape:zoom="0.2102413"
     inkscape:cx="397.16269"
     inkscape:cy="561.25984"
     inkscape:window-width="1312"
     inkscape:window-height="449"
     inkscape:window-x="884"
     inkscape:window-y="2185"
     inkscape:window-maximized="0"
     inkscape:current-layer="layer1" />
  <defs
     id="defs1" />
  <g
     inkscape:label="Layer 1"
     inkscape:groupmode="layer"
     id="layer1">
    <path
       style="display:inline;fill:#000000;fill-opacity:1;stroke-width:0.649258;stroke-linecap:round;stroke-miterlimit:0"
       d="m 96.969144,171.07962 c -0.694479,-0.34978 -1.710293,-1.46652 -2.257399,-2.48165 -0.943716,-1.75107 -0.951812,-1.93567 -0.157771,-3.6008 0.576263,-1.20841 1.672643,-2.20299 3.519805,-3.19296 l 2.682851,-1.43786 2.36334,-7.57609 c 3.33626,-10.6949 3.34168,-10.64149 -1.58303,-15.56621 -3.898321,-3.89832 -4.075698,-4.0092 -5.934581,-3.70973 -1.053915,0.16979 -4.12496,1.13609 -6.824609,2.14734 -4.135729,1.54921 -5.065739,2.10532 -5.907934,3.53271 -0.567452,0.96178 -1.572948,1.838 -2.326111,2.02702 -3.033316,0.76132 -5.404141,-2.26439 -3.458687,-4.41409 0.838677,-0.92672 1.313022,-1.00622 4.266883,-0.71515 2.996115,0.29523 3.814392,0.1497 8.311594,-1.47822 2.743544,-0.99313 5.375646,-2.15624 5.849065,-2.58469 0.484108,-0.4381 1.117626,-2.25458 1.447747,-4.151 0.825711,-4.74368 1.716563,-6.31503 5.437183,-9.59053 l 3.26319,-2.87279 -0.28464,-2.52536 c -0.28898,-2.56378 -3.83468,-12.72771 -5.14035,-14.735054 -0.392854,-0.603957 -1.231715,-1.25452 -1.864149,-1.445689 -2.175563,-0.657632 -3.927766,-2.792796 -3.927766,-4.786204 0,-3.883903 4.987158,-5.658842 7.851585,-2.794402 1.53435,1.534348 1.60528,3.639759 0.21448,6.365967 l -1.02526,2.009651 2.7877,7.440331 c 1.72278,4.59805 3.23551,7.83373 3.95994,8.47015 0.67037,0.58894 2.9042,1.402 5.21779,1.89917 6.80392,1.46209 11.00974,5.04263 12.31517,10.48424 1.69841,7.07976 -3.51047,13.36875 -12.54485,15.14616 -4.84548,0.95329 -5.30278,1.51621 -7.90705,9.73331 -3.14039,9.90873 -3.14142,9.91696 -1.57816,12.58446 1.85843,3.17118 1.7363,4.96399 -0.47014,6.90128 -1.94982,1.71195 -4.096329,2.02449 -6.295836,0.91669 z"
       id="path24" />
    <path
       style="display:inline;fill:#000000;fill-opacity:1;stroke-width:0.649258;stroke-linecap:round;stroke-miterlimit:0"
       d="m 63.690302,163.87141 c -0.945515,-0.7956 -1.66669,-1.98557 -1.874414,-3.09285 -0.305779,-1.62994 -0.911437,-2.17498 -6.420405,-5.77788 -6.763412,-4.42333 -7.749726,-4.66845 -11.719269,-2.91253 -8.832506,3.90704 -18.439527,-5.06795 -14.386639,-13.44013 1.512675,-3.12478 4.110011,-4.81147 7.921122,-5.14394 2.549392,-0.22239 3.30409,-0.0632 5.707935,1.2036 4.057782,2.13851 5.630334,4.8905 5.862505,10.25964 0.09713,2.24594 0.301916,4.28632 0.45511,4.53418 0.153194,0.24786 2.904543,2.22185 6.114151,4.38664 5.789612,3.90495 5.861552,3.93605 9.124711,3.94442 2.841705,0.007 3.420454,0.17062 4.254633,1.20079 1.251743,1.54587 1.231714,3.84468 -0.04464,5.12104 -1.370409,1.37042 -3.149653,1.26961 -4.994804,-0.28298 z"
       id="path25" />
    <path
       style="display:inline;fill:#000000;fill-opacity:1;stroke-width:0.649258;stroke-linecap:round;stroke-miterlimit:0"
       d="m 24.468337,120.99367 c -1.580012,-1.58 -1.580012,-3.51663 0,-5.09663 1.579986,-1.58001 3.51663,-1.58001 5.096616,0 1.580012,1.58 1.580012,3.51663 0,5.09663 -1.579986,1.58001 -3.51663,1.58001 -5.096616,0 z"
       id="path32" />
    <path
       style="display:inline;fill:#000000;fill-opacity:1;stroke-width:0.649258;stroke-linecap:round;stroke-miterlimit:0"
       d="m 38.633308,107.67012 c -6.647576,-3.18046 -7.741285,-10.384001 -2.407655,-15.857635 2.227236,-2.285695 5.909786,-3.645556 8.602371,-3.176592 1.037537,0.180705 3.135524,0.861663 4.662197,1.513236 3.421221,1.460151 3.847862,1.318258 11.310911,-3.761766 4.537471,-3.088611 5.2941,-3.804949 5.569505,-5.273024 0.682757,-3.63937 4.632378,-5.555022 6.860117,-3.327294 2.85414,2.854153 -0.275775,7.01798 -4.768903,6.344195 -2.02901,-0.304268 -2.414058,-0.128323 -8.277013,3.782055 -3.995923,2.665137 -6.235674,4.484134 -6.396461,5.194882 -0.136102,0.601543 -0.45548,2.862913 -0.709718,5.025265 -0.355891,3.026788 -0.773034,4.338978 -1.812608,5.701938 -3.177725,4.1662 -8.538633,5.79354 -12.632743,3.83474 z"
       id="path33" />
    <path
       style="display:inline;fill:#000000;fill-opacity:1;stroke-width:0.649258;stroke-linecap:round;stroke-miterlimit:0"
       d="m 91.955078,78.476538 c -0.575733,-0.731935 -1.046798,-1.772189 -1.046798,-2.311675 0,-1.311836 2.682478,-3.933613 4.024683,-3.933613 1.600306,0 3.551396,2.207218 3.551396,4.017621 0,3.399332 -4.421134,4.90774 -6.529281,2.227667 z"
       id="path34" />
    <path
       style="display:inline;fill:#000000;fill-opacity:1;stroke-width:0.649258;stroke-linecap:round;stroke-miterlimit:0"
       d="m 170.97019,127.41039 c -1.31627,-1.31296 -1.37702,-1.57421 -1.11035,-4.77515 l 0.28213,-3.3862 -3.58712,-4.94749 c -7.52036,-10.37233 -7.859,-10.60218 -14.83019,-10.06634 -2.29031,0.17605 -4.50638,0.4514 -4.92461,0.61189 -0.7992,0.30668 -1.7069,2.27643 -3.6432,7.90592 -1.10059,3.19974 -1.12197,3.49345 -0.36486,5.01113 0.70744,1.41809 0.7167,1.76896 0.0769,2.91445 -0.95404,1.70816 -3.40498,2.01586 -4.6958,0.58951 -1.33295,-1.47287 -0.69017,-3.40738 1.47529,-4.44001 1.59951,-0.76276 1.89008,-1.27535 3.55478,-6.27128 2.06269,-6.19025 2.07174,-6.13319 -1.59456,-10.05276 -2.82805,-3.023438 -3.72864,-5.254724 -3.72864,-9.2381 0,-4.388472 -0.66323,-4.897877 -11.61667,-8.922552 -5.07336,-1.864127 -6.00461,-2.063745 -7.35941,-1.57752 -3.90009,1.399696 -7.35253,0.213701 -8.10498,-2.784253 -0.38904,-1.550095 1.06257,-3.763142 2.89756,-4.417475 1.9867,-0.70843 4.7457,0.752367 5.97609,3.164128 1.21438,2.380382 2.00419,2.839117 10.10677,5.870072 7.26016,2.715829 8.71778,2.800472 11.64981,0.676506 3.55216,-2.573174 6.34333,-3.582197 9.85314,-3.561948 4.03069,0.02326 7.70022,1.563441 10.12841,4.251153 3.82386,4.232584 4.23944,8.176836 1.47034,13.954998 -0.97227,2.028774 -1.76774,4.321171 -1.76774,5.094221 0,0.93924 1.33655,3.31337 4.02868,7.15612 5.96551,8.51524 6.00028,8.551 8.82862,9.07939 4.29011,0.80148 6.25073,2.95135 5.5599,6.09662 -0.76237,3.47103 -5.90664,4.71196 -8.56033,2.06497 z"
       id="path35" />
    <path
       style="display:inline;fill:#000000;fill-opacity:1;stroke-width:0.649258;stroke-linecap:round;stroke-miterlimit:0"
       d="m 122.84346,103.20768 c -0.35308,-0.14206 -0.996,-0.94294 -1.42872,-1.77974 -1.92289,-3.718442 2.70708,-7.275956 5.7635,-4.428478 3.04305,2.835045 -0.41373,7.785838 -4.33478,6.208218 z"
       id="path36" />
    <path
       style="display:inline;fill:#000000;fill-opacity:1;stroke-width:0.649258;stroke-linecap:round;stroke-miterlimit:0"
       d="m 75.985701,109.88209 c -1.573106,-1.57311 -1.573106,-3.01846 0,-4.59157 2.314099,-2.31412 5.831285,-0.92941 5.831285,2.29578 0,3.22519 -3.517186,4.60991 -5.831285,2.29579 z"
       id="path37" />
    <path
       style="display:inline;fill:#000000;fill-opacity:1;stroke-width:0.649258;stroke-linecap:round;stroke-miterlimit:0"
       d="m 52.214238,124.58616 c -2.717826,-2.33778 -1.205044,-6.39334 2.384796,-6.39334 3.326156,0 4.790942,4.45094 2.14876,6.52928 -1.722649,1.35504 -2.839111,1.32156 -4.533556,-0.13594 z"
       id="path38" />
    <path
       style="display:inline;fill:#000000;fill-opacity:1;stroke-width:0.649258;stroke-linecap:round;stroke-miterlimit:0"
       d="m 61.570328,143.80917 c -0.440769,-0.3384 -1.076113,-1.131 -1.411896,-1.76134 -0.813144,-1.52647 0.17825,-3.64192 2.149555,-4.58674 1.287568,-0.61711 1.585118,-0.58513 2.773309,0.29811 1.829065,1.35965 2.081424,4.17386 0.50591,5.64168 -1.264841,1.17837 -2.809399,1.33537 -4.016878,0.40829 z"
       id="path39" />
    <path
       style="display:inline;fill:#000000;fill-opacity:1;stroke-width:0.649258;stroke-linecap:round;stroke-miterlimit:0"
       d="m 79.016133,168.97553 c -1.514528,-1.51452 -1.56763,-2.75286 -0.192934,-4.50049 2.098093,-2.66729 6.024218,-1.2868 6.024218,2.11821 0,3.31028 -3.481123,4.73244 -5.831284,2.38228 z"
       id="path40" />
    <path
       style="display:inline;fill:#000000;fill-opacity:1;stroke-width:0.649258;stroke-linecap:round;stroke-miterlimit:0"
       d="m 118.36605,164.06873 c -1.10651,-0.53579 -2.20416,-2.40278 -2.20416,-3.74911 0,-1.31942 2.36796,-3.23624 3.99793,-3.23624 3.34412,0 4.87897,4.45925 2.24734,6.52928 -1.45682,1.14593 -2.3972,1.25207 -4.04111,0.45607 z"
       id="path41" />
    <path
       style="display:inline;fill:#000000;fill-opacity:1;stroke-width:0.649258;stroke-linecap:round;stroke-miterlimit:0"
       d="m 129.2939,224.37988 c -3.72163,-1.86291 -3.31298,-5.59484 0.85825,-7.8379 l 2.60832,-1.4026 2.57458,-6.5372 c 1.416,-3.59547 2.60601,-7.37339 2.64443,-8.39538 0.0631,-1.67835 -0.2341,-2.12656 -3.07118,-4.63166 -3.63349,-3.20836 -4.76078,-5.17087 -5.53288,-9.63237 -0.30578,-1.76698 -0.80264,-3.50991 -1.10414,-3.87317 -0.30146,-0.36326 -2.24573,-1.27963 -4.32059,-2.03637 -4.97218,-1.81346 -4.42939,-2.21483 0.68972,-0.51001 4.92273,1.63942 5.51558,1.46796 9.97727,-2.88538 4.29999,-4.19554 4.29425,-3.62244 0.17204,-17.15831 l -1.50056,-4.9274 -2.46761,-1.25043 c -2.89714,-1.46809 -4.05315,-2.91738 -4.05315,-5.08143 0,-2.86796 3.98954,-5.34256 6.8598,-4.25492 3.87487,1.46833 4.84073,4.66659 2.4508,8.11527 -1.47976,2.1353 -1.52037,1.83198 1.58208,11.82123 2.55238,8.21817 2.75855,8.46699 8.12054,9.79963 8.31522,2.06664 12.55014,6.25885 12.55014,12.42355 0,6.6467 -5.2973,11.47409 -13.85956,12.63013 -3.87599,0.52331 -4.85146,1.73904 -7.82627,9.75399 -2.31175,6.2285 -2.44827,6.84594 -1.84283,8.33369 1.49178,3.66572 1.30467,5.90728 -0.5929,7.10362 -1.96212,1.23705 -3.10891,1.33815 -4.9163,0.43342 z"
       id="path42" />
    <path
       style="display:inline;fill:#000000;fill-opacity:1;stroke-width:0.649258;stroke-linecap:round;stroke-miterlimit:0"
       d="m 131.63469,136.33876 c -2.54971,-2.0056 -1.24148,-6.02421 1.96115,-6.02421 3.39606,0 4.90516,3.46548 2.53936,5.83129 -1.51453,1.51453 -2.75285,1.56761 -4.50051,0.19292 z"
       id="path43" />
    <path
       style="display:inline;fill:#000000;fill-opacity:1;stroke-width:0.649258;stroke-linecap:round;stroke-miterlimit:0"
       d="m 174.26878,160.53229 c -2.55127,-0.73222 -5.36599,-2.91917 -6.62602,-5.14826 -0.65169,-1.15291 -1.26462,-3.42113 -1.49735,-5.54123 -0.47252,-4.30459 -0.70731,-4.54007 -8.63389,-8.65849 -5.20943,-2.70667 -5.50552,-2.79555 -8.24192,-2.47393 -2.52588,0.29686 -2.97548,0.20479 -4.08356,-0.83619 -1.51132,-1.41982 -1.66989,-3.98829 -0.32155,-5.20853 2.11193,-1.91126 6.24729,-0.29487 6.90484,2.69887 0.38396,1.74821 1.31789,2.45603 7.89127,5.98067 5.67653,3.04375 7.3442,3.23019 11.19214,1.25123 4.61269,-2.37227 9.539,-1.54696 13.0883,2.19269 1.54581,1.62872 2.93233,4.6324 2.92815,6.34344 -0.0106,4.29267 -3.1563,8.38501 -7.23506,9.41206 -2.64821,0.66683 -3.00172,0.66601 -5.36535,-0.0123 z"
       id="path44" />
    <path
       style="display:inline;fill:#000000;fill-opacity:1;stroke-width:0.649258;stroke-linecap:round;stroke-miterlimit:0"
       d="m 156.52881,128.33312 c -1.27312,-1.27313 -1.51633,-1.84644 -1.25386,-2.95573 1.05656,-4.46533 7.35359,-3.98085 7.35359,0.56577 0,1.88911 -1.0537,3.10435 -3.14399,3.626 -1.11985,0.27946 -1.6705,0.0492 -2.95574,-1.23604 z"
       id="path45" />
    <path
       style="display:inline;fill:#000000;fill-opacity:1;stroke-width:0.649258;stroke-linecap:round;stroke-miterlimit:0"
       d="m 154.54737,162.23853 c -1.56432,-0.48779 -2.52537,-1.80668 -2.52537,-3.46568 0,-3.20027 3.13603,-4.76059 5.58403,-2.77832 2.69357,2.18111 0.20484,7.26162 -3.05866,6.244 z"
       id="path46" />
    <path
       style="display:inline;fill:#000000;fill-opacity:1;stroke-width:0.649258;stroke-linecap:round;stroke-miterlimit:0"
       d="m 167.7159,177.47069 c -0.57574,-0.73194 -1.0468,-1.87868 -1.0468,-2.54832 0,-1.60605 2.14243,-3.69697 3.78804,-3.69697 1.68396,0 3.78804,2.10407 3.78804,3.78804 0,0.71973 -0.55788,1.86647 -1.23971,2.54832 -1.68706,1.68706 -3.92115,1.64859 -5.28957,-0.0911 z"
       id="path47" />
    <path
       style="display:inline;fill:#ffffff;fill-opacity:1;stroke-width:0.649258;stroke-linecap:round;stroke-miterlimit:0"
       d="m 110.45019,177.49319 c -1.16472,-0.63657 -1.3907,-1.06178 -1.26269,-2.37602 0.29244,-3.00253 4.73228,-3.22698 6.23794,-0.31535 0.47332,0.91531 1.65677,1.94169 2.91336,2.52667 1.64213,0.76448 1.77678,0.90598 0.60097,0.63169 -1.94765,-0.45436 -3.65905,-0.4652 -5.55577,-0.0352 -0.98719,0.2238 -2.00959,0.0733 -2.93381,-0.4318 z"
       id="path48" />
    <path
       style="display:inline;fill:#000000;fill-opacity:1;stroke:none;stroke-width:0.149033;stroke-linecap:round;stroke-miterlimit:0"
       d="m 123.76591,180.19936 c -0.15942,-0.0658 -1.82587,-0.68854 -3.70325,-1.38389 -2.45596,-0.90966 -3.55854,-1.26428 -3.9308,-1.26428 -0.28459,0 -1.08226,0.1826 -1.77261,0.40578 -1.35741,0.43882 -2.01723,0.49459 -2.94055,0.24855 -0.7697,-0.2051 -1.24838,-0.46248 -1.82208,-0.97971 -0.60735,-0.54761 -0.89665,-1.18596 -0.89987,-1.98573 -0.008,-2.03566 2.22078,-3.28427 4.64751,-2.60336 0.97613,0.27388 1.7567,1.01646 2.48243,2.36158 0.8577,1.58975 0.48934,1.37489 5.38863,3.14319 2.92918,1.05723 3.38654,1.28333 1.40539,0.69478 -3.13171,-0.93036 -2.92746,-0.37581 0.32448,0.88105 0.73753,0.28504 1.36303,0.54033 1.39002,0.5673 0.0905,0.0905 -0.27654,0.0356 -0.5693,-0.0853 z"
       id="path50" />
  </g>
</svg>
