<?xml version="1.0" encoding="UTF-8" standalone="no"?>
<!-- Created with Inkscape (http://www.inkscape.org/) -->

<svg
   width="300mm"
   height="200mm"
   viewBox="0 0 300 200"
   version="1.1"
   id="svg1"
   inkscape:version="1.3.2 (091e20e, 2023-11-25)"
   sodipodi:docname="NewBrain.svg"
   inkscape:export-filename="NewBrain.png"
   inkscape:export-xdpi="96"
   inkscape:export-ydpi="96"
   xmlns:inkscape="http://www.inkscape.org/namespaces/inkscape"
   xmlns:sodipodi="http://sodipodi.sourceforge.net/DTD/sodipodi-0.dtd"
   xmlns:xlink="http://www.w3.org/1999/xlink"
   xmlns="http://www.w3.org/2000/svg"
   xmlns:svg="http://www.w3.org/2000/svg">
  <sodipodi:namedview
     id="namedview1"
     pagecolor="#ffffff"
     bordercolor="#000000"
     borderopacity="0.25"
     inkscape:showpageshadow="2"
     inkscape:pageopacity="0.0"
     inkscape:pagecheckerboard="0"
     inkscape:deskcolor="#d1d1d1"
     inkscape:document-units="mm"
     showguides="true"
     inkscape:zoom="0.66384344"
     inkscape:cx="607.82404"
     inkscape:cy="260.60361"
     inkscape:window-width="1920"
     inkscape:window-height="1147"
     inkscape:window-x="884"
     inkscape:window-y="2185"
     inkscape:window-maximized="0"
     inkscape:current-layer="layer1" />
  <defs
     id="defs1">
    <linearGradient
       id="linearGradient13"
       inkscape:collect="always">
      <stop
         style="stop-color:#32fdea;stop-opacity:1;"
         offset="0"
         id="stop13" />
      <stop
         style="stop-color:#75fd98;stop-opacity:1;"
         offset="1"
         id="stop14" />
    </linearGradient>
    <linearGradient
       inkscape:collect="always"
       xlink:href="#linearGradient13"
       id="linearGradient15"
       gradientUnits="userSpaceOnUse"
       x1="206.77371"
       y1="34.284828"
       x2="81.133667"
       y2="117.33504" />
    <linearGradient
       inkscape:collect="always"
       xlink:href="#linearGradient13"
       id="linearGradient16"
       gradientUnits="userSpaceOnUse"
       x1="206.77371"
       y1="34.284828"
       x2="81.133667"
       y2="117.33504" />
    <linearGradient
       inkscape:collect="always"
       xlink:href="#linearGradient13"
       id="linearGradient17"
       gradientUnits="userSpaceOnUse"
       x1="206.77371"
       y1="34.284828"
       x2="81.133667"
       y2="117.33504" />
    <linearGradient
       inkscape:collect="always"
       xlink:href="#linearGradient13"
       id="linearGradient18"
       gradientUnits="userSpaceOnUse"
       x1="206.77371"
       y1="34.284828"
       x2="81.133667"
       y2="117.33504" />
    <linearGradient
       inkscape:collect="always"
       xlink:href="#linearGradient13"
       id="linearGradient19"
       gradientUnits="userSpaceOnUse"
       x1="206.77371"
       y1="34.284828"
       x2="81.133667"
       y2="117.33504" />
    <linearGradient
       inkscape:collect="always"
       xlink:href="#linearGradient13"
       id="linearGradient20"
       gradientUnits="userSpaceOnUse"
       x1="206.77371"
       y1="34.284828"
       x2="81.133667"
       y2="117.33504" />
  </defs>
  <g
     inkscape:label="Layer 1"
     inkscape:groupmode="layer"
     id="layer1"
     style="display:inline">
    <rect
       style="fill:#18093a;fill-opacity:1;stroke:none;stroke-width:0.553;stroke-linecap:round;stroke-miterlimit:0;stroke-dasharray:none;stroke-opacity:1"
       id="rect32"
       width="299.5025"
       height="199.3205"
       x="0.24874878"
       y="0.3397522" />
    <path
       style="fill:#2bfdd7;fill-opacity:1;stroke-width:1.03461;stroke-linecap:round;stroke-miterlimit:0"
       d="m 372.38416,288.72904 c -4.52331,-0.92516 -9.36031,-5.64813 -10.6619,-10.41055 -2.45209,-8.97204 4.68056,-18.33867 13.9724,-18.34861 14.14899,-0.0151 20.2566,16.91564 9.39815,26.05242 -2.23643,1.88183 -3.81004,2.51284 -8.02173,3.21668 -0.664,0.11096 -2.77311,-0.11851 -4.68692,-0.50994 z"
       id="path2"
       transform="scale(0.26458333)"
       sodipodi:insensitive="true" />
    <path
       style="fill:#2bfdd7;fill-opacity:1;stroke-width:1.03461;stroke-linecap:round;stroke-miterlimit:0"
       d="m 462.78734,234.0622 c -6.35053,-2.3301 -10.22096,-7.36038 -10.29351,-13.37813 -0.1379,-11.43932 13.40085,-18.33208 22.28361,-11.3449 5.58872,4.39609 6.7865,12.90026 2.68903,19.09196 -3.19164,4.82289 -9.88443,7.39032 -14.67913,5.63107 z"
       id="path3"
       transform="scale(0.26458333)"
       sodipodi:insensitive="true" />
    <path
       style="fill:#2bfdd7;fill-opacity:1;stroke-width:1.03461;stroke-linecap:round;stroke-miterlimit:0"
       d="m 522.25263,115.20817 c -1.82206,-0.8522 -4.35733,-2.91887 -5.63394,-4.59259 -2.05848,-2.69881 -2.32111,-3.69477 -2.32111,-8.80237 0,-5.111098 0.26191,-6.102603 2.32725,-8.810403 8.48517,-11.12464 26.24484,-5.16271 26.24484,8.810403 0,10.59498 -11.13538,17.82966 -20.61704,13.39496 z"
       id="path4"
       transform="scale(0.26458333)"
       sodipodi:insensitive="true" />
    <path
       style="fill:#2bfdd7;fill-opacity:1;stroke-width:1.03461;stroke-linecap:round;stroke-miterlimit:0"
       d="m 634.11188,203.69195 c -8.24525,-5.02771 -9.93147,-15.69507 -3.61798,-22.88811 4.288,-4.88538 13.37166,-5.88364 18.9233,-2.07959 2.93903,2.01385 5.54364,5.98629 6.45274,9.84144 0.65252,2.7671 -0.75634,8.2561 -2.88715,11.24856 -3.64937,5.12507 -13.50428,7.15011 -18.87091,3.8777 z"
       id="path5"
       transform="scale(0.26458333)"
       sodipodi:insensitive="true" />
    <g
       id="g20"
       transform="translate(0,0.52917051)">
      <circle
         style="display:inline;fill:#70fd9c;fill-opacity:1;stroke:none;stroke-width:0.342507;stroke-linecap:round;stroke-miterlimit:0;stroke-dasharray:none;stroke-opacity:1"
         id="path21-5"
         cx="215.40227"
         cy="125.80545"
         r="4.0249248" />
      <circle
         style="display:inline;fill:#2bfdd7;fill-opacity:1;stroke:none;stroke-width:0.342507;stroke-linecap:round;stroke-miterlimit:0;stroke-dasharray:none;stroke-opacity:1"
         id="path21-5-16"
         cx="72.035301"
         cy="69.225288"
         r="4.0249248" />
      <circle
         style="fill:#70fd9c;fill-opacity:1;stroke:none;stroke-width:0.342507;stroke-linecap:round;stroke-miterlimit:0;stroke-dasharray:none;stroke-opacity:1"
         id="path21-5-4"
         cx="169.66623"
         cy="50.493771"
         r="4.0249248" />
      <circle
         style="fill:#70fd9c;fill-opacity:1;stroke:none;stroke-width:0.342507;stroke-linecap:round;stroke-miterlimit:0;stroke-dasharray:none;stroke-opacity:1"
         id="path21-5-7"
         cx="204.00734"
         cy="76.604362"
         r="4.0249248" />
      <circle
         style="fill:#70fd9c;fill-opacity:1;stroke:none;stroke-width:0.342507;stroke-linecap:round;stroke-miterlimit:0;stroke-dasharray:none;stroke-opacity:1"
         id="path21-5-1"
         cx="165.04544"
         cy="111.5241"
         r="4.0249248" />
      <circle
         style="fill:#70fd9c;fill-opacity:1;stroke:none;stroke-width:0.342507;stroke-linecap:round;stroke-miterlimit:0;stroke-dasharray:none;stroke-opacity:1"
         id="path21-5-5"
         cx="99.485123"
         cy="72.642014"
         r="4.0249248" />
      <circle
         style="fill:#70fd9c;fill-opacity:1;stroke:none;stroke-width:0.342507;stroke-linecap:round;stroke-miterlimit:0;stroke-dasharray:none;stroke-opacity:1"
         id="path21-5-6"
         cx="139.78625"
         cy="26.948469"
         r="4.0249248" />
      <path
         d="m 207.63864,35.707228 c -4.21613,-5.82844 -12.72943,-7.383836 -19.01446,-3.473971 -0.2004,0.124667 -0.38262,0.264453 -0.57362,0.397037 -0.99109,0.577186 -1.92578,1.278382 -2.78158,2.099545 -0.55705,0.534512 -1.79277,0.784433 -2.71533,0.922309 -0.75307,0.112559 -2.17651,-0.279754 -3.06955,-0.625185 L 167.07091,30.22588 c -0.50466,-0.305341 -1.03166,-0.418041 -1.38185,-0.959344 -0.29385,-0.454248 -0.3464,-1.068283 -0.63007,-1.686547 -0.56227,-1.56572 -1.7522,-2.660399 -3.30707,-3.289974 -2.44865,-0.960302 -5.16844,0.02821 -6.0746,2.207615 -0.90619,2.179518 0.34427,4.724927 2.7931,5.685128 1.59486,0.603827 3.4467,0.486781 4.84156,-0.308913 0.20786,-0.118563 0.47703,-0.209189 0.75564,-0.349906 0.24379,-0.123161 0.49568,-0.303193 0.71189,-0.327056 0.29303,-0.03233 0.62378,-0.04029 0.85035,-0.0099 0.2922,0.03915 0.47534,0.13152 0.85624,0.207966 l 12.53364,4.865973 c 0.50228,0.307788 1.72424,0.730301 2.56111,1.470588 0.79156,0.700232 1.21251,1.705728 1.24419,2.456716 0.002,0.02615 0.004,0.05156 0.005,0.07758 -0.7005,3.209254 -0.0747,6.666232 2.04758,9.600237 0.66702,0.914548 1.4908,1.602 2.25043,2.391354 0.55631,0.578069 1.23223,1.068533 1.68956,1.716944 0.36814,0.521918 0.72736,1.091622 0.82039,1.709289 0.0999,0.662993 -0.0952,1.404308 -0.30462,1.988316 l -2.91052,8.117694 c -0.19972,0.333731 -0.25579,0.675296 -0.63778,0.918011 -0.32054,0.203634 -0.77177,0.258062 -1.21403,0.460719 -1.12797,0.413177 -1.87552,1.212716 -2.26094,2.230518 -0.58392,1.601761 0.28591,3.311608 1.94262,3.818918 1.6568,0.50732 3.47336,-0.380169 4.0572,-1.982065 0.36434,-1.042552 0.18283,-2.225206 -0.47661,-3.092376 -0.0981,-0.129314 -0.17923,-0.298707 -0.29748,-0.47252 -0.10361,-0.152045 -0.24947,-0.307445 -0.27819,-0.445213 -0.0389,-0.186723 -0.0615,-0.398589 -0.0507,-0.544827 0.0139,-0.188596 0.0727,-0.309108 0.10965,-0.555815 l 2.95216,-8.196901 c 0.20164,-0.332304 0.4514,-1.129715 0.95543,-1.691053 0.47676,-0.530949 1.1203,-0.688091 1.75101,-0.880404 0.34868,-0.106308 0.72497,-0.110783 1.09055,-0.140963 2.09896,-0.17331 4.12625,0.06886 6.31695,-0.229195 1.01649,-0.138299 2.27171,0.274607 3.24861,0.662351 0.79743,0.316488 1.86716,1.476061 2.46674,2.29567 l 8.33429,11.392762 c 0.2592,0.565387 0.67876,0.964312 0.62056,1.66232 -0.0489,0.585704 -0.44234,1.184995 -0.6194,1.917194 -0.59686,1.767022 -0.25658,3.44747 0.76695,4.900696 1.63442,2.259644 4.93476,2.862791 7.37145,1.347137 2.4368,-1.515762 3.08711,-4.576554 1.45245,-6.836223 -1.08018,-1.451693 -2.92534,-2.377992 -4.82674,-2.419343 -0.28334,-0.0062 -0.60474,-0.07228 -0.97137,-0.09749 -0.32081,-0.02204 -0.69047,0.0041 -0.91328,-0.0947 -0.302,-0.133818 -0.62231,-0.311183 -0.8158,-0.466011 -0.24953,-0.199672 -0.35714,-0.38798 -0.66406,-0.671816 l -8.40134,-11.519906 c -0.2552,-0.566337 -1.11123,-1.641596 -1.37199,-2.79624 -0.24664,-1.092144 0.0794,-2.260019 0.59194,-2.974535 3.56292,-4.966573 4.65209,-10.511861 0.98698,-15.581147 z"
         style="fill:url(#linearGradient15);fill-opacity:1;stroke-width:0;stroke-miterlimit:0"
         id="path20"
         sodipodi:nodetypes="cscsscccccccsccsccssccaaasccccsccccsccsaassscsccccssssccscc" />
      <path
         d="m 170.74125,82.501603 c 2.15714,-6.979164 -2.46888,-14.242139 -10.33225,-16.221855 -0.25072,-0.06312 -0.50195,-0.102854 -0.75301,-0.153813 -1.20537,-0.338496 -2.48007,-0.552856 -3.80475,-0.629328 -0.86223,-0.04977 -1.95203,-0.785926 -2.72282,-1.368093 -0.62918,-0.475203 -1.28637,-1.778018 -1.61134,-2.66177 l -4.51752,-12.283967 c -0.0868,-0.573055 -0.35874,-1.033625 -0.12891,-1.65159 0.19259,-0.518533 0.69557,-0.96753 1.03956,-1.588306 0.98104,-1.457948 1.10591,-3.059729 0.56484,-4.617264 -0.8795,-2.431999 -3.66367,-3.759081 -6.21823,-2.964146 -2.55468,0.794989 -3.91273,3.411075 -3.03303,5.843145 0.59189,1.569547 1.99861,2.844912 3.68039,3.332446 0.25061,0.07266 0.51983,0.20881 0.83974,0.31838 0.27995,0.09585 0.61561,0.159592 0.78882,0.301671 0.23474,0.192575 0.4746,0.429021 0.60739,0.614956 0.17134,0.23976 0.21905,0.435388 0.41996,0.764939 l 4.54524,12.415396 c 0.083,0.57296 0.57173,1.748695 0.50992,2.855427 -0.0585,1.046828 -0.64634,2.026872 -1.28445,2.552193 -0.0221,0.01853 -0.0425,0.03741 -0.0646,0.05571 -3.31541,1.633902 -5.91488,4.402933 -7.00087,7.916117 -0.33463,1.099094 -0.35918,2.160938 -0.51852,3.244022 -0.11668,0.793181 -0.0721,1.615209 -0.32034,2.383082 -0.19979,0.618086 -0.44787,1.261611 -0.92556,1.742627 -0.5127,0.516345 -1.30199,0.869429 -1.96299,1.106872 l -9.1879,3.300589 c -0.4341,0.07717 -0.77394,0.264577 -1.25634,0.147651 -0.40475,-0.09814 -0.77031,-0.391578 -1.2599,-0.579341 -1.15751,-0.548228 -2.38694,-0.560035 -3.55334,-0.161174 -1.81972,0.644217 -2.71096,2.423369 -1.99067,3.973591 0.72034,1.550291 2.77976,2.284689 4.59954,1.640318 1.17333,-0.430808 2.08556,-1.354298 2.38388,-2.416173 0.0446,-0.158178 0.13649,-0.330753 0.20608,-0.533414 0.0608,-0.177394 0.0947,-0.387932 0.19566,-0.501052 0.13682,-0.153293 0.30726,-0.311442 0.44348,-0.401313 0.1757,-0.1159 0.32302,-0.15355 0.56599,-0.291514 l 9.28689,-3.32311 c 0.4342,-0.07482 1.31128,-0.425447 2.15979,-0.432373 0.80259,-0.0065 1.39386,0.358784 2.00704,0.691226 0.33898,0.183783 0.60784,0.455847 0.89177,0.702895 1.63021,1.418381 2.84457,3.062196 4.64904,4.464213 0.8373,0.650548 1.35793,1.844159 1.70475,2.817515 0.28314,0.79451 0.0166,2.351824 -0.2821,3.338153 l -4.15102,13.710089 c -0.31472,0.56754 -0.37014,1.14096 -1.02495,1.56517 -0.54946,0.35593 -1.35351,0.46904 -2.12207,0.82922 -1.97416,0.74526 -3.21237,2.11767 -3.76971,3.83756 -0.83643,2.70567 0.95679,5.52142 4.00524,6.28906 3.0486,0.76768 6.19812,-0.80364 7.0344,-3.5095 0.51611,-1.76028 0.0316,-3.72842 -1.27073,-5.14592 -0.19406,-0.21123 -0.3622,-0.49038 -0.59814,-0.77523 -0.2065,-0.24923 -0.48969,-0.502 -0.55975,-0.7309 -0.0949,-0.31023 -0.16448,-0.66296 -0.16455,-0.90792 -9e-5,-0.31592 0.0898,-0.52049 0.12327,-0.93464 l 4.21535,-13.844403 c 0.31837,-0.565232 0.66127,-1.909949 1.49307,-2.872643 0.78678,-0.910572 2.04334,-1.453209 3.03257,-1.556298 6.87613,-0.716634 12.5195,-3.628469 14.39701,-9.697233 z"
         style="fill:url(#linearGradient16);fill-opacity:1;stroke-width:0;stroke-miterlimit:0"
         id="path27"
         sodipodi:nodetypes="cscsscccccccsccsccssccaaasccccsccccsccsaassscsccccssssccscc" />
      <path
         d="m 203.15242,133.59782 c 2.14263,6.79588 -2.48318,13.73535 -10.33167,15.49931 -0.25027,0.0562 -0.50096,0.0899 -0.75154,0.1343 -1.20315,0.30431 -2.4753,0.4871 -3.79711,0.53553 -0.86038,0.0315 -1.94877,0.72286 -2.71863,1.27136 -0.62846,0.44773 -1.28597,1.69587 -1.61143,2.54484 l -4.52449,11.80071 c -0.0874,0.55292 -0.35936,0.99338 -0.13092,1.59587 0.19144,0.50556 0.69269,0.94979 1.03504,1.5572 0.97683,1.4299 1.09919,2.98247 0.55717,4.47934 -0.88091,2.33661 -3.66071,3.56712 -6.20846,2.74844 -2.54786,-0.81873 -3.89924,-3.37673 -3.01812,-5.71341 0.59274,-1.50752 1.99807,-2.71459 3.67678,-3.1539 0.25015,-0.0654 0.51896,-0.19203 0.8383,-0.29189 0.27947,-0.0873 0.61446,-0.14255 0.78747,-0.27672 0.2345,-0.18183 0.47416,-0.40601 0.6069,-0.58338 0.17129,-0.22873 0.21917,-0.41713 0.42009,-0.73216 l 4.55231,-11.92739 c 0.0836,-0.55288 0.57288,-1.68127 0.51274,-2.75353 -0.057,-1.01421 -0.64208,-1.97403 -1.27805,-2.49474 -0.022,-0.0184 -0.0423,-0.037 -0.0644,-0.0552 -3.30574,-1.64531 -5.89554,-4.3753 -6.97423,-7.79624 -0.33236,-1.07013 -0.35538,-2.09822 -0.51285,-3.14948 -0.11528,-0.76986 -0.0697,-1.56452 -0.31632,-2.31244 -0.19849,-0.60203 -0.44512,-1.22962 -0.92107,-1.70436 -0.51084,-0.50959 -1.29786,-0.86654 -1.95708,-1.10912 l -9.16276,-3.37174 c -0.43301,-0.0831 -0.77185,-0.27101 -1.25333,-0.16716 -0.404,0.0871 -0.76914,0.36406 -1.25788,0.53632 -1.15569,0.50819 -2.38238,0.49587 -3.54563,0.0873 -1.81476,-0.65861 -2.70152,-2.39763 -1.98069,-3.88397 0.72088,-1.48641 2.7767,-2.15735 4.59153,-1.49857 1.17011,0.43959 2.07902,1.35095 2.37519,2.38435 0.0443,0.15393 0.13573,0.32273 0.20489,0.52021 0.0603,0.17286 0.094,0.37726 0.19452,0.48868 0.13631,0.15099 0.30614,0.30733 0.44193,0.39694 0.17513,0.11556 0.32209,0.15486 0.56431,0.29307 l 9.2615,3.39545 c 0.43314,0.0807 1.30776,0.43705 2.15437,0.46015 0.80079,0.0219 1.39124,-0.32028 2.00352,-0.63017 0.33845,-0.17131 0.60711,-0.4294 0.89075,-0.663 1.62851,-1.34115 2.84245,-2.90852 4.64484,-4.23048 0.83632,-0.61339 1.35744,-1.75846 1.70484,-2.69377 0.28361,-0.7634 0.0198,-2.27568 -0.27687,-3.23598 l -4.12268,-13.34838 c -0.31327,-0.5553 -0.36774,-1.11134 -1.0205,-1.53451 -0.54773,-0.35508 -1.34983,-0.48009 -2.11616,-0.8435 -1.96872,-0.7594 -3.20226,-2.11149 -3.75597,-3.78672 -0.83079,-2.634608 0.96232,-5.324933 4.00503,-6.008934 3.04284,-0.684018 6.18315,0.897497 7.01379,3.532305 0.51251,1.713502 0.0264,3.608859 -1.27503,4.955479 -0.19392,0.20068 -0.36207,0.46758 -0.59788,0.73869 -0.20638,0.23722 -0.4893,0.47637 -0.55951,0.69654 -0.0951,0.29839 -0.16507,0.6384 -0.16544,0.87545 -5.8e-4,0.30575 0.0888,0.50547 0.1217,0.90692 l 4.18676,13.47958 c 0.31688,0.55316 0.65714,1.86117 1.48573,2.80889 0.78375,0.89642 2.03676,1.44585 3.02363,1.56474 6.85976,0.8264 12.48648,3.75345 14.35136,9.66287 z"
         style="fill:url(#linearGradient17);fill-opacity:1;stroke-width:0;stroke-miterlimit:0"
         id="path28"
         sodipodi:nodetypes="cscsscccccccsccsccssccaaasccccsccccsccsaassscsccccssssccscc" />
      <path
         d="m 82.638374,40.936103 c -4.947492,3.264417 -6.518715,9.649703 -3.509344,14.261635 3.0093,4.611856 9.459654,5.704337 14.407123,2.440106 4.07063,-2.707493 5.553292,-7.148031 4.747293,-11.675723 -0.121028,-0.679915 0.303322,-1.70102 0.656098,-2.437962 0.287928,-0.601573 1.280226,-1.42341 1.976186,-1.887452 l 9.67384,-6.450217 c 0.47483,-0.204877 0.81808,-0.52611 1.39145,-0.496776 0.48113,0.02462 0.96161,0.306395 1.55915,0.423752 1.43624,0.409814 2.8331,0.121742 4.06574,-0.671486 1.91809,-1.265472 2.52734,-3.740852 1.36078,-5.528892 -1.16666,-1.788113 -3.6675,-2.211679 -5.58563,-0.946024 -1.2333,0.835504 -2.05959,2.231545 -2.15828,3.6515 -0.0147,0.211584 -0.0802,0.452578 -0.11341,0.726714 -0.029,0.239893 -0.0198,0.515386 -0.10882,0.683681 -0.12086,0.227947 -0.27782,0.470755 -0.41205,0.618265 -0.17309,0.190264 -0.33179,0.27428 -0.57617,0.50909 l -9.7811,6.503127 c -0.475493,0.201893 -1.390835,0.862748 -2.351434,1.080698 -0.90862,0.206139 -1.860278,-0.0137 -2.431839,-0.381844 -3.972896,-2.55901 -8.506581,-3.26003 -12.809604,-0.422201 z"
         style="fill:url(#linearGradient18);fill-opacity:1;stroke-width:0;stroke-miterlimit:0"
         id="path29"
         sodipodi:nodetypes="cscssscsccccssssccsscc" />
      <path
         d="m 89.131382,85.745037 c -4.94242,-3.272091 -11.432628,-2.214824 -14.495979,2.361433 -3.063307,4.57616 -1.540099,10.938588 3.40214,14.21074 4.086365,2.68367 8.752727,2.30719 12.602207,-0.20898 0.57807,-0.37785 1.683797,-0.38768 2.500046,-0.35197 0.666293,0.0291 1.811308,0.61986 2.511005,1.07824 l 9.725829,6.37155 c 0.3746,0.35653 0.80467,0.54642 1.00242,1.0854 0.16594,0.45228 0.0951,1.00476 0.22127,1.60048 0.18594,1.48196 0.99847,2.65412 2.21139,3.47719 1.91603,1.26862 4.43214,0.85887 5.61986,-0.91519 1.18775,-1.77416 0.5972,-4.24092 -1.31901,-5.50949 -1.25205,-0.80713 -2.86026,-1.02012 -4.20527,-0.55434 -0.20043,0.0694 -0.4478,0.10361 -0.71302,0.1805 -0.23209,0.0672 -0.48193,0.18375 -0.67163,0.16788 -0.25707,-0.0218 -0.54198,-0.0711 -0.7303,-0.13675 -0.24288,-0.0847 -0.38238,-0.19772 -0.69418,-0.33052 l -9.816587,-6.44947 c -0.37211,-0.35831 -1.338861,-0.94137 -1.915887,-1.73968 -0.545783,-0.755121 -0.71655,-1.716796 -0.601888,-2.386921 0.797035,-4.658022 -0.335056,-9.103709 -4.632416,-11.950107 z"
         style="fill:url(#linearGradient19);fill-opacity:1;stroke-width:0;stroke-miterlimit:0"
         id="path30"
         sodipodi:nodetypes="cscssscsccccssssccsscc" />
      <path
         d="m 216.5989,110.49566 c 5.20855,2.82935 11.58206,1.211 14.23533,-3.61459 2.65324,-4.82549 0.58186,-11.031135 -4.6265,-13.860543 -4.30451,-2.317706 -8.92038,-1.536368 -12.53616,1.305411 -0.54298,0.426743 -1.64365,0.53281 -2.4599,0.568316 -0.66631,0.02903 -1.85841,-0.459819 -2.59536,-0.855529 L 198.37266,88.53818 c -0.40422,-0.322565 -0.84919,-0.474278 -1.09312,-0.994 -0.20468,-0.436121 -0.18216,-0.992673 -0.35978,-1.575139 -0.31425,-1.460142 -1.22576,-2.557114 -2.50574,-3.271452 -2.01921,-1.096969 -4.49008,-0.469704 -5.51883,1.401027 -1.02877,1.870845 -0.22569,4.276817 1.7937,5.373722 1.31757,0.695057 2.93822,0.767186 4.23756,0.186098 0.19362,-0.08659 0.43709,-0.142198 0.6946,-0.241905 0.22535,-0.08722 0.46409,-0.225004 0.65446,-0.225712 0.25802,-6.73e-4 0.54611,0.02361 0.73944,0.07265 0.2494,0.06295 0.39815,0.163663 0.72032,0.268829 l 10.34084,5.570271 c 0.4019,0.32455 1.41574,0.821238 2.06008,1.566273 0.60946,0.704732 0.8633,1.647883 0.80743,2.325447 -0.38845,4.709721 1.12642,9.039961 5.65529,11.501391 z"
         style="fill:url(#linearGradient20);fill-opacity:1;stroke-width:0;stroke-miterlimit:0"
         id="path31"
         sodipodi:nodetypes="cscssscsccccssssccsscc" />
      <path
         style="fill:#3cfdd9;fill-opacity:1;stroke:none;stroke-width:0.593187;stroke-linecap:round;stroke-miterlimit:0;stroke-dasharray:none;stroke-opacity:1"
         d="m 198.89518,112.96854 c -2.4552,-1.06942 -3.21307,-4.0455 -1.52097,-5.9727 1.60724,-1.83055 4.28501,-1.89518 5.76267,-0.13908 1.77233,2.10629 0.95632,5.23181 -1.62086,6.20827 -1.02453,0.38819 -1.55277,0.36873 -2.62084,-0.0965 z"
         id="path32-5" />
      <path
         style="fill:#3cfdd9;fill-opacity:1;stroke:none;stroke-width:0.593187;stroke-linecap:round;stroke-miterlimit:0;stroke-dasharray:none;stroke-opacity:1"
         d="m 121.98244,61.882593 c -2.4552,-1.069419 -3.21307,-4.045506 -1.52096,-5.972704 1.60724,-1.830548 4.285,-1.895176 5.76266,-0.139081 1.77233,2.106298 0.95633,5.231808 -1.62086,6.208274 -1.02452,0.388183 -1.55276,0.368733 -2.62084,-0.09649 z"
         id="path32-1" />
      <path
         style="fill:#3cfdd9;fill-opacity:1;stroke:none;stroke-width:0.593187;stroke-linecap:round;stroke-miterlimit:0;stroke-dasharray:none;stroke-opacity:1"
         d="m 177.32555,87.993189 c -2.45519,-1.069418 -3.21306,-4.045505 -1.52096,-5.972703 1.60724,-1.830548 4.285,-1.895176 5.76266,-0.139081 1.77233,2.106298 0.95633,5.231808 -1.62085,6.208274 -1.02453,0.388183 -1.55277,0.368733 -2.62085,-0.09649 z"
         id="path32-58" />
      <path
         style="fill:#3cfdd9;fill-opacity:1;stroke:none;stroke-width:0.593187;stroke-linecap:round;stroke-miterlimit:0;stroke-dasharray:none;stroke-opacity:1"
         d="m 106.94047,95.088457 c -2.45521,-1.069411 -3.21307,-4.045501 -1.52097,-5.972699 1.60725,-1.830547 4.28501,-1.895173 5.76266,-0.139084 1.77234,2.106301 0.95633,5.231813 -1.62085,6.208279 -1.02452,0.388184 -1.55277,0.368733 -2.62084,-0.0965 z"
         id="path32-13" />
      <path
         style="display:inline;fill:#3cfdd9;fill-opacity:1;stroke:none;stroke-width:0.593187;stroke-linecap:round;stroke-miterlimit:0;stroke-dasharray:none;stroke-opacity:1"
         d="m 125.10436,120.91525 c -2.4552,-1.06942 -3.21307,-4.04551 -1.52096,-5.97271 1.60724,-1.83055 4.285,-1.89517 5.76266,-0.13908 1.77233,2.1063 0.95632,5.23181 -1.62085,6.20828 -1.02453,0.38818 -1.55277,0.36873 -2.62085,-0.0965 z"
         id="path32-7" />
      <path
         style="fill:#2bfdd7;fill-opacity:1;stroke-width:1.03461;stroke-linecap:round;stroke-miterlimit:0"
         d="m 669.57256,331.58201 c -3.82202,-1.8919 -6.25597,-4.88821 -7.59135,-9.34531 -1.42463,-4.75496 -0.002,-9.00208 4.36486,-13.0269 5.60094,-5.16277 12.45619,-5.51463 17.70217,-0.90859 5.23537,4.59671 6.68481,11.00879 3.77232,16.68805 -3.8848,7.57522 -11.0405,10.16048 -18.248,6.59275 z"
         id="path6"
         transform="scale(0.26458333)" />
    </g>
    <path
       style="fill:#2bfdd7;fill-opacity:1;stroke-width:1.03461;stroke-linecap:round;stroke-miterlimit:0"
       d="m 404.83832,359.04582 c -11.93008,-5.52344 -12.40223,-19.7977 -0.84194,-25.45362 5.4691,-2.67578 9.64489,-2.2452 13.82571,1.4256 3.74107,3.2847 5.31103,6.55605 5.31103,11.06665 0,6.41096 -4.22034,11.91058 -10.47253,13.64699 -3.88847,1.07993 -4.03699,1.06691 -7.82227,-0.68562 z"
       id="path7"
       transform="scale(0.26458333)"
       sodipodi:insensitive="true" />
    <path
       style="fill:#2bfdd7;fill-opacity:1;stroke-width:1.03461;stroke-linecap:round;stroke-miterlimit:0"
       d="m 473.25036,456.6686 c -8.25594,-4.50019 -11.22868,-11.80901 -7.65348,-18.81697 2.17996,-4.27307 6.43992,-7.36449 10.83011,-7.85933 4.77339,-0.53803 7.12006,0.15095 10.43877,3.06482 5.25948,4.61788 6.50741,11.98502 3.02822,17.877 -3.2572,5.51604 -11.70473,8.4266 -16.64362,5.73448 z"
       id="path8"
       transform="scale(0.26458333)"
       sodipodi:insensitive="true" />
    <path
       style="fill:#2bfdd7;fill-opacity:1;stroke-width:1.03461;stroke-linecap:round;stroke-miterlimit:0"
       d="m 618.12292,435.10645 c -5.8745,-2.57385 -10.05045,-10.08515 -8.92933,-16.06122 0.66981,-3.57041 3.46546,-7.67865 6.7159,-9.86913 12.95128,-8.72786 28.72041,7.45865 20.04205,20.57254 -3.62656,5.48009 -11.88508,7.96192 -17.82862,5.35781 z"
       id="path9"
       transform="scale(0.26458333)"
       sodipodi:insensitive="true" />
    <path
       style="fill:#2bfdd7;fill-opacity:1;stroke-width:1.03461;stroke-linecap:round;stroke-miterlimit:0"
       d="m 764.33818,302.50539 c -9.14456,-4.52644 -10.68287,-17.13272 -2.92215,-23.94673 2.38086,-2.09043 7.0959,-4.09667 9.62792,-4.09667 2.53203,0 7.24706,2.00624 9.62793,4.09667 7.78705,6.83712 6.20651,19.51566 -2.98773,23.96651 -4.49111,2.17411 -8.92703,2.16754 -13.34597,-0.0198 z"
       id="path10"
       transform="scale(0.26458333)"
       sodipodi:insensitive="true" />
    <path
       style="fill:#2bfdd7;fill-opacity:1;stroke-width:1.03461;stroke-linecap:round;stroke-miterlimit:0"
       d="m 751.47154,426.08897 c -10.27051,-5.11801 -11.14117,-18.49458 -1.58171,-24.30097 5.8315,-3.54204 12.11724,-2.92269 16.50514,1.62628 7.7813,8.06694 4.66523,20.17331 -6.13535,23.83667 -3.71751,1.2609 -4.00127,1.22338 -8.78808,-1.16198 z"
       id="path11"
       transform="scale(0.26458333)"
       sodipodi:insensitive="true" />
    <g
       id="g12"
       style="display:inline"
       sodipodi:insensitive="true">
      <path
         style="fill:#2bfdd7;fill-opacity:1;stroke-width:1.03461;stroke-linecap:round;stroke-miterlimit:0"
         d="m 807.5065,488.50983 c -7.34069,-3.87688 -10.14786,-13.2782 -6.05177,-20.26765 4.15152,-7.08403 12.93355,-9.40884 19.96845,-5.28611 7.853,4.60216 9.70839,15.77726 3.69316,22.24412 -4.49854,4.83628 -12.03667,6.25302 -17.60984,3.30964 z"
         id="path12"
         transform="scale(0.26458333)" />
    </g>
    <path
       style="fill:#000000;fill-opacity:1;stroke-width:2.45389;stroke-linecap:round;stroke-miterlimit:0"
       d=""
       id="path26"
       transform="scale(0.26458333)" />
  </g>
</svg>
