<?xml version="1.0" encoding="UTF-8" standalone="no"?>
<!-- Created with Inkscape (http://www.inkscape.org/) -->

<svg
   width="300mm"
   height="200mm"
   viewBox="0 0 300 200"
   version="1.1"
   id="svg1"
   inkscape:version="1.3.2 (091e20e, 2023-11-25)"
   sodipodi:docname="Brain3BW.svg"
   xmlns:inkscape="http://www.inkscape.org/namespaces/inkscape"
   xmlns:sodipodi="http://sodipodi.sourceforge.net/DTD/sodipodi-0.dtd"
   xmlns="http://www.w3.org/2000/svg"
   xmlns:svg="http://www.w3.org/2000/svg">
  <sodipodi:namedview
     id="namedview1"
     pagecolor="#ffffff"
     bordercolor="#000000"
     borderopacity="0.25"
     inkscape:showpageshadow="2"
     inkscape:pageopacity="0.0"
     inkscape:pagecheckerboard="0"
     inkscape:deskcolor="#d1d1d1"
     inkscape:document-units="mm"
     inkscape:zoom="1.6300079"
     inkscape:cx="345.09035"
     inkscape:cy="438.64818"
     inkscape:window-width="2608"
     inkscape:window-height="1535"
     inkscape:window-x="0"
     inkscape:window-y="25"
     inkscape:window-maximized="0"
     inkscape:current-layer="layer1" />
  <defs
     id="defs1" />
  <g
     inkscape:label="Layer 1"
     inkscape:groupmode="layer"
     id="layer1">
    <rect
       style="fill:#000000;fill-opacity:1;stroke:none;stroke-width:0.553;stroke-linecap:round;stroke-miterlimit:0;stroke-dasharray:none;stroke-opacity:1"
       id="rect32"
       width="299.5025"
       height="199.3205"
       x="0.24875322"
       y="0.33975253" />
    <path
       d="m 207.63864,35.70723 c -4.21613,-5.82844 -12.72943,-7.38383 -19.01446,-3.47397 -0.2004,0.12467 -0.38262,0.26445 -0.57362,0.39704 -0.99109,0.57718 -1.92578,1.27838 -2.78158,2.09954 -0.55705,0.53451 -1.79277,0.78444 -2.71533,0.92231 -0.75307,0.11256 -2.17651,-0.27975 -3.06955,-0.62518 l -12.41319,-4.80109 c -0.50466,-0.30534 -1.03166,-0.41804 -1.38185,-0.95934 -0.29385,-0.45425 -0.3464,-1.06828 -0.63007,-1.68655 -0.56227,-1.56572 -1.7522,-2.660396 -3.30707,-3.289971 -2.44865,-0.960302 -5.16844,0.02821 -6.0746,2.207611 -0.90619,2.17952 0.34427,4.72493 2.7931,5.68513 1.59486,0.60383 3.4467,0.48678 4.84156,-0.30891 0.20786,-0.11856 0.47703,-0.20919 0.75564,-0.34991 0.24379,-0.12316 0.49568,-0.30319 0.71189,-0.32705 0.29303,-0.0323 0.62378,-0.0403 0.85035,-0.01 0.2922,0.0392 0.47534,0.13152 0.85624,0.20796 l 12.53364,4.86598 c 0.50228,0.30778 1.72424,0.7303 2.56111,1.47058 0.79156,0.70024 1.21251,1.70573 1.24419,2.45672 0.002,0.0261 0.004,0.0516 0.005,0.0776 -0.7005,3.20925 -0.0747,6.66623 2.04758,9.60024 0.66702,0.91455 1.4908,1.602 2.25043,2.39135 0.55631,0.57807 1.23223,1.06853 1.68956,1.71694 0.36814,0.52192 0.72736,1.09163 0.82039,1.70929 0.0999,0.663 -0.0952,1.40431 -0.30462,1.98832 l -2.91052,8.11769 c -0.19972,0.33373 -0.25579,0.6753 -0.63778,0.91802 -0.32054,0.20363 -0.77177,0.25806 -1.21403,0.46071 -1.12797,0.41318 -1.87552,1.21272 -2.26094,2.23052 -0.58392,1.60176 0.28591,3.31161 1.94262,3.81892 1.6568,0.50732 3.47336,-0.38017 4.0572,-1.98207 0.36434,-1.04255 0.18283,-2.2252 -0.47661,-3.09237 -0.0981,-0.12931 -0.17923,-0.29871 -0.29748,-0.47252 -0.10361,-0.15205 -0.24947,-0.30745 -0.27819,-0.44521 -0.0389,-0.18673 -0.0615,-0.39859 -0.0507,-0.54483 0.0139,-0.1886 0.0727,-0.30911 0.10965,-0.55582 l 2.95216,-8.1969 c 0.20164,-0.3323 0.4514,-1.12971 0.95543,-1.69105 0.47676,-0.53095 1.1203,-0.68809 1.75101,-0.8804 0.34868,-0.10631 0.72497,-0.11079 1.09055,-0.14097 2.09896,-0.17331 4.12625,0.0689 6.31695,-0.22919 1.01649,-0.1383 2.27171,0.2746 3.24861,0.66235 0.79743,0.31649 1.86716,1.47606 2.46674,2.29567 l 8.33429,11.39276 c 0.2592,0.56539 0.67876,0.96431 0.62056,1.66232 -0.0489,0.58571 -0.44234,1.185 -0.6194,1.91719 -0.59686,1.76703 -0.25658,3.44748 0.76695,4.9007 1.63442,2.25964 4.93476,2.86279 7.37145,1.34714 2.4368,-1.51576 3.08711,-4.57656 1.45245,-6.83623 -1.08018,-1.45169 -2.92534,-2.37799 -4.82674,-2.41934 -0.28334,-0.006 -0.60474,-0.0723 -0.97137,-0.0975 -0.32081,-0.022 -0.69047,0.004 -0.91328,-0.0947 -0.302,-0.13382 -0.62231,-0.31118 -0.8158,-0.46601 -0.24953,-0.19967 -0.35714,-0.38798 -0.66406,-0.67182 l -8.40134,-11.5199 c -0.2552,-0.56634 -1.11123,-1.6416 -1.37199,-2.79624 -0.24664,-1.09214 0.0794,-2.26002 0.59194,-2.97454 3.56292,-4.96657 4.65209,-10.51186 0.98698,-15.58114 z"
       style="fill:#ffffff;fill-opacity:1;stroke-width:0;stroke-miterlimit:0"
       id="path20"
       sodipodi:nodetypes="cscsscccccccsccsccssccaaasccccsccccsccsaassscsccccssssccscc" />
    <circle
       style="fill:#ffffff;fill-opacity:1;stroke:none;stroke-width:0.342507;stroke-linecap:round;stroke-miterlimit:0;stroke-dasharray:none;stroke-opacity:1"
       id="path21-5"
       cx="215.40227"
       cy="125.80546"
       r="4.0249248" />
    <circle
       style="fill:#ffffff;fill-opacity:1;stroke:none;stroke-width:0.342507;stroke-linecap:round;stroke-miterlimit:0;stroke-dasharray:none;stroke-opacity:1"
       id="path21-5-16"
       cx="72.035301"
       cy="69.225288"
       r="4.0249248" />
    <circle
       style="fill:#ffffff;fill-opacity:1;stroke:none;stroke-width:0.342507;stroke-linecap:round;stroke-miterlimit:0;stroke-dasharray:none;stroke-opacity:1"
       id="path21-5-4"
       cx="169.66621"
       cy="50.493767"
       r="4.0249248" />
    <circle
       style="fill:#ffffff;fill-opacity:1;stroke:none;stroke-width:0.342507;stroke-linecap:round;stroke-miterlimit:0;stroke-dasharray:none;stroke-opacity:1"
       id="path21-5-7"
       cx="204.00734"
       cy="76.604362"
       r="4.0249248" />
    <circle
       style="fill:#ffffff;fill-opacity:1;stroke:none;stroke-width:0.342507;stroke-linecap:round;stroke-miterlimit:0;stroke-dasharray:none;stroke-opacity:1"
       id="path21-5-1"
       cx="165.04543"
       cy="111.5241"
       r="4.0249248" />
    <circle
       style="fill:#ffffff;fill-opacity:1;stroke:none;stroke-width:0.342507;stroke-linecap:round;stroke-miterlimit:0;stroke-dasharray:none;stroke-opacity:1"
       id="path21-5-5"
       cx="99.48513"
       cy="72.642021"
       r="4.0249248" />
    <circle
       style="fill:#ffffff;fill-opacity:1;stroke:none;stroke-width:0.342507;stroke-linecap:round;stroke-miterlimit:0;stroke-dasharray:none;stroke-opacity:1"
       id="path21-5-6"
       cx="139.78624"
       cy="26.948471"
       r="4.0249248" />
    <path
       d="m 170.74125,82.50161 c 2.15714,-6.97917 -2.46888,-14.24214 -10.33225,-16.22186 -0.25072,-0.0631 -0.50195,-0.10285 -0.75301,-0.15381 -1.20537,-0.3385 -2.48007,-0.55286 -3.80475,-0.62933 -0.86223,-0.0498 -1.95203,-0.78593 -2.72282,-1.36809 -0.62918,-0.47521 -1.28637,-1.77802 -1.61134,-2.66177 l -4.51752,-12.28397 c -0.0868,-0.57305 -0.35874,-1.03362 -0.12891,-1.65159 0.19259,-0.51853 0.69557,-0.96753 1.03956,-1.5883 0.98104,-1.45795 1.10591,-3.05973 0.56484,-4.61727 -0.8795,-2.432 -3.66367,-3.75908 -6.21823,-2.96414 -2.55468,0.79498 -3.91273,3.41107 -3.03303,5.84314 0.59189,1.56955 1.99861,2.84491 3.68039,3.33245 0.25061,0.0727 0.51983,0.20881 0.83974,0.31838 0.27995,0.0958 0.61561,0.15959 0.78882,0.30167 0.23474,0.19257 0.4746,0.42902 0.60739,0.61495 0.17134,0.23976 0.21905,0.43539 0.41996,0.76494 l 4.54524,12.4154 c 0.083,0.57296 0.57173,1.74869 0.50992,2.85542 -0.0585,1.04683 -0.64634,2.02688 -1.28445,2.5522 -0.0221,0.0185 -0.0425,0.0374 -0.0646,0.0557 -3.31541,1.6339 -5.91488,4.40293 -7.00087,7.91611 -0.33463,1.0991 -0.35918,2.16094 -0.51852,3.24403 -0.11668,0.79318 -0.0721,1.61521 -0.32034,2.38308 -0.19979,0.61809 -0.44787,1.26161 -0.92556,1.74263 -0.5127,0.51634 -1.30199,0.86943 -1.96299,1.10687 l -9.1879,3.30059 c -0.4341,0.0772 -0.77394,0.26457 -1.25634,0.14765 -0.40475,-0.0981 -0.77031,-0.39158 -1.2599,-0.57934 -1.15751,-0.54823 -2.38694,-0.56004 -3.55334,-0.16118 -1.81972,0.64422 -2.71096,2.42337 -1.99067,3.97359 0.72034,1.55029 2.77976,2.28469 4.59954,1.64032 1.17333,-0.43081 2.08556,-1.3543 2.38388,-2.41617 0.0446,-0.15818 0.13649,-0.33075 0.20608,-0.53341 0.0608,-0.1774 0.0947,-0.38794 0.19566,-0.50106 0.13682,-0.15329 0.30726,-0.31144 0.44348,-0.40131 0.1757,-0.1159 0.32302,-0.15355 0.56599,-0.29151 l 9.28689,-3.32311 c 0.4342,-0.0748 1.31128,-0.42545 2.15979,-0.43238 0.80259,-0.007 1.39386,0.35879 2.00704,0.69123 0.33898,0.18378 0.60784,0.45585 0.89177,0.70289 1.63021,1.41838 2.84457,3.0622 4.64904,4.46422 0.8373,0.65054 1.35793,1.84416 1.70475,2.81751 0.28314,0.79451 0.0166,2.35183 -0.2821,3.33815 l -4.15102,13.71009 c -0.31472,0.56754 -0.37014,1.14096 -1.02495,1.56517 -0.54946,0.35593 -1.35351,0.46904 -2.12207,0.82922 -1.97416,0.74526 -3.21237,2.11767 -3.76971,3.83756 -0.83643,2.70567 0.95679,5.52142 4.00524,6.28906 3.0486,0.76768 6.19812,-0.80364 7.0344,-3.5095 0.51611,-1.76028 0.0316,-3.72842 -1.27073,-5.14592 -0.19406,-0.21123 -0.3622,-0.49038 -0.59814,-0.77523 -0.2065,-0.24923 -0.48969,-0.502 -0.55975,-0.7309 -0.0949,-0.31023 -0.16448,-0.66296 -0.16455,-0.90792 -9e-5,-0.31592 0.0898,-0.52049 0.12327,-0.93464 l 4.21535,-13.8444 c 0.31837,-0.56523 0.66127,-1.90995 1.49307,-2.87264 0.78678,-0.91057 2.04334,-1.45321 3.03257,-1.5563 6.87613,-0.71663 12.5195,-3.62847 14.39701,-9.69723 z"
       style="fill:#ffffff;fill-opacity:1;stroke-width:0;stroke-miterlimit:0"
       id="path27"
       sodipodi:nodetypes="cscsscccccccsccsccssccaaasccccsccccsccsaassscsccccssssccscc" />
    <path
       d="m 203.15242,133.59782 c 2.14263,6.79588 -2.48318,13.73535 -10.33167,15.49931 -0.25027,0.0562 -0.50096,0.0899 -0.75154,0.1343 -1.20315,0.30431 -2.4753,0.4871 -3.79711,0.53553 -0.86038,0.0315 -1.94877,0.72286 -2.71863,1.27136 -0.62846,0.44773 -1.28597,1.69587 -1.61143,2.54484 l -4.52449,11.80071 c -0.0874,0.55292 -0.35936,0.99338 -0.13092,1.59587 0.19144,0.50556 0.69269,0.94979 1.03504,1.5572 0.97683,1.4299 1.09919,2.98247 0.55717,4.47934 -0.88091,2.33661 -3.66071,3.56712 -6.20846,2.74844 -2.54786,-0.81873 -3.89924,-3.37673 -3.01812,-5.71341 0.59274,-1.50752 1.99807,-2.71459 3.67678,-3.1539 0.25015,-0.0654 0.51896,-0.19203 0.8383,-0.29189 0.27947,-0.0873 0.61446,-0.14255 0.78747,-0.27672 0.2345,-0.18183 0.47416,-0.40601 0.6069,-0.58338 0.17129,-0.22873 0.21917,-0.41713 0.42009,-0.73216 l 4.55231,-11.92739 c 0.0836,-0.55288 0.57288,-1.68127 0.51274,-2.75353 -0.057,-1.01421 -0.64208,-1.97403 -1.27805,-2.49474 -0.022,-0.0184 -0.0423,-0.037 -0.0644,-0.0552 -3.30574,-1.64531 -5.89554,-4.3753 -6.97423,-7.79624 -0.33236,-1.07013 -0.35538,-2.09822 -0.51285,-3.14948 -0.11528,-0.76986 -0.0697,-1.56452 -0.31632,-2.31244 -0.19849,-0.60203 -0.44512,-1.22962 -0.92107,-1.70436 -0.51084,-0.50959 -1.29786,-0.86654 -1.95708,-1.10912 l -9.16276,-3.37174 c -0.43301,-0.0831 -0.77185,-0.27101 -1.25333,-0.16716 -0.404,0.0871 -0.76914,0.36406 -1.25788,0.53632 -1.15569,0.50819 -2.38238,0.49587 -3.54563,0.0873 -1.81476,-0.65861 -2.70152,-2.39763 -1.98069,-3.88397 0.72088,-1.48641 2.7767,-2.15735 4.59153,-1.49857 1.17011,0.43959 2.07902,1.35095 2.37519,2.38435 0.0443,0.15393 0.13573,0.32273 0.20489,0.52021 0.0603,0.17286 0.094,0.37726 0.19452,0.48868 0.13631,0.15099 0.30614,0.30733 0.44193,0.39694 0.17513,0.11556 0.32209,0.15486 0.56431,0.29307 l 9.2615,3.39545 c 0.43314,0.0807 1.30776,0.43705 2.15437,0.46015 0.80079,0.0219 1.39124,-0.32028 2.00352,-0.63017 0.33845,-0.17131 0.60711,-0.4294 0.89075,-0.663 1.62851,-1.34115 2.84245,-2.90852 4.64484,-4.23048 0.83632,-0.61339 1.35744,-1.75846 1.70484,-2.69377 0.28361,-0.7634 0.0198,-2.27568 -0.27687,-3.23598 l -4.12268,-13.34838 c -0.31327,-0.5553 -0.36774,-1.11134 -1.0205,-1.53451 -0.54773,-0.35508 -1.34983,-0.48009 -2.11616,-0.8435 -1.96872,-0.7594 -3.20226,-2.11149 -3.75597,-3.78672 -0.83079,-2.6346 0.96232,-5.32493 4.00503,-6.00893 3.04284,-0.68402 6.18315,0.8975 7.01379,3.5323 0.51251,1.71351 0.0264,3.60886 -1.27503,4.95548 -0.19392,0.20068 -0.36207,0.46758 -0.59788,0.73869 -0.20638,0.23722 -0.4893,0.47637 -0.55951,0.69654 -0.0951,0.29839 -0.16507,0.6384 -0.16544,0.87545 -5.8e-4,0.30575 0.0888,0.50547 0.1217,0.90692 l 4.18676,13.47958 c 0.31688,0.55316 0.65714,1.86117 1.48573,2.80889 0.78375,0.89642 2.03676,1.44585 3.02363,1.56474 6.85976,0.8264 12.48648,3.75345 14.35136,9.66287 z"
       style="fill:#ffffff;fill-opacity:1;stroke-width:0;stroke-miterlimit:0"
       id="path28"
       sodipodi:nodetypes="cscsscccccccsccsccssccaaasccccsccccsccsaassscsccccssssccscc" />
    <path
       d="m 82.63837,40.93611 c -4.94749,3.26441 -6.51871,9.6497 -3.50934,14.26163 3.0093,4.61186 9.45965,5.70434 14.40712,2.44011 4.07063,-2.7075 5.55329,-7.14803 4.7473,-11.67572 -0.12103,-0.67992 0.30332,-1.70102 0.65609,-2.43797 0.28793,-0.60157 1.28023,-1.42341 1.97619,-1.88745 l 9.67384,-6.45022 c 0.47483,-0.20487 0.81808,-0.52611 1.39145,-0.49677 0.48113,0.0246 0.96161,0.30639 1.55915,0.42375 1.43624,0.40981 2.8331,0.12174 4.06574,-0.67149 1.91809,-1.26547 2.52734,-3.74085 1.36078,-5.52889 -1.16666,-1.78811 -3.6675,-2.21168 -5.58563,-0.94602 -1.2333,0.8355 -2.05959,2.23154 -2.15828,3.6515 -0.0147,0.21158 -0.0802,0.45258 -0.11341,0.72671 -0.029,0.2399 -0.0198,0.51539 -0.10882,0.68368 -0.12086,0.22795 -0.27782,0.47076 -0.41205,0.61827 -0.17309,0.19026 -0.33179,0.27428 -0.57617,0.50909 l -9.7811,6.50313 c -0.47549,0.20189 -1.39083,0.86274 -2.35143,1.08069 -0.90862,0.20614 -1.86028,-0.0137 -2.43184,-0.38184 -3.9729,-2.55901 -8.50658,-3.26003 -12.80961,-0.4222 z"
       style="fill:#ffffff;fill-opacity:1;stroke-width:0;stroke-miterlimit:0"
       id="path29"
       sodipodi:nodetypes="cscssscsccccssssccsscc" />
    <path
       d="m 89.13138,85.74504 c -4.94242,-3.27209 -11.43263,-2.21482 -14.49598,2.36143 -3.0633,4.57616 -1.5401,10.93859 3.40214,14.21074 4.08637,2.68367 8.75273,2.30719 12.60221,-0.20898 0.57807,-0.37785 1.6838,-0.38768 2.50005,-0.35197 0.66629,0.0291 1.8113,0.61986 2.511,1.07824 l 9.72583,6.37155 c 0.3746,0.35653 0.80467,0.54642 1.00242,1.0854 0.16594,0.45228 0.0951,1.00476 0.22127,1.60048 0.18594,1.48196 0.99847,2.65412 2.21139,3.47719 1.91603,1.26862 4.43214,0.85887 5.61986,-0.91519 1.18775,-1.77416 0.5972,-4.24092 -1.31901,-5.50949 -1.25205,-0.80713 -2.86026,-1.02012 -4.20527,-0.55434 -0.20043,0.0694 -0.4478,0.10361 -0.71302,0.1805 -0.23209,0.0672 -0.48193,0.18375 -0.67163,0.16788 -0.25707,-0.0218 -0.54198,-0.0711 -0.7303,-0.13675 -0.24288,-0.0847 -0.38238,-0.19772 -0.69418,-0.33052 l -9.81659,-6.44947 c -0.37211,-0.35831 -1.33886,-0.94137 -1.91588,-1.73968 -0.54579,-0.75512 -0.71655,-1.71679 -0.60189,-2.38692 0.79703,-4.65802 -0.33506,-9.10371 -4.63242,-11.9501 z"
       style="fill:#ffffff;fill-opacity:1;stroke-width:0;stroke-miterlimit:0"
       id="path30"
       sodipodi:nodetypes="cscssscsccccssssccsscc" />
    <path
       d="m 216.5989,110.49566 c 5.20855,2.82935 11.58206,1.211 14.23533,-3.61459 2.65324,-4.82549 0.58186,-11.03113 -4.6265,-13.86054 -4.30451,-2.31771 -8.92038,-1.53637 -12.53616,1.30541 -0.54298,0.42675 -1.64365,0.53281 -2.4599,0.56832 -0.66631,0.029 -1.85841,-0.45982 -2.59536,-0.85553 l -10.24365,-5.50055 c -0.40422,-0.32256 -0.84919,-0.47427 -1.09312,-0.994 -0.20468,-0.43612 -0.18216,-0.99267 -0.35978,-1.57513 -0.31425,-1.46015 -1.22576,-2.55712 -2.50574,-3.27146 -2.01921,-1.09697 -4.49008,-0.4697 -5.51883,1.40103 -1.02877,1.87085 -0.22569,4.27682 1.7937,5.37372 1.31757,0.69506 2.93822,0.76719 4.23756,0.1861 0.19362,-0.0866 0.43709,-0.1422 0.6946,-0.2419 0.22535,-0.0872 0.46409,-0.22501 0.65446,-0.22572 0.25802,-6.7e-4 0.54611,0.0236 0.73944,0.0726 0.2494,0.063 0.39815,0.16367 0.72032,0.26883 l 10.34084,5.57027 c 0.4019,0.32455 1.41574,0.82124 2.06008,1.56628 0.60946,0.70473 0.8633,1.64788 0.80743,2.32544 -0.38845,4.70972 1.12642,9.03996 5.65529,11.50139 z"
       style="fill:#ffffff;fill-opacity:1;stroke-width:0;stroke-miterlimit:0"
       id="path31"
       sodipodi:nodetypes="cscssscsccccssssccsscc" />
    <path
       style="fill:#ffffff;fill-opacity:1;stroke:none;stroke-width:0.593187;stroke-linecap:round;stroke-miterlimit:0;stroke-dasharray:none;stroke-opacity:1"
       d="m 198.89518,112.96854 c -2.4552,-1.06942 -3.21307,-4.0455 -1.52097,-5.9727 1.60724,-1.83055 4.28501,-1.89518 5.76267,-0.13908 1.77233,2.10629 0.95632,5.23181 -1.62086,6.20827 -1.02453,0.38819 -1.55277,0.36873 -2.62084,-0.0965 z"
       id="path32-5" />
    <path
       style="fill:#ffffff;fill-opacity:1;stroke:none;stroke-width:0.593187;stroke-linecap:round;stroke-miterlimit:0;stroke-dasharray:none;stroke-opacity:1"
       d="m 121.98244,61.8826 c -2.4552,-1.06942 -3.21307,-4.04551 -1.52096,-5.97271 1.60724,-1.83054 4.285,-1.89517 5.76266,-0.13908 1.77233,2.1063 0.95633,5.23181 -1.62086,6.20828 -1.02452,0.38818 -1.55276,0.36873 -2.62084,-0.0965 z"
       id="path32-1" />
    <path
       style="fill:#ffffff;fill-opacity:1;stroke:none;stroke-width:0.593187;stroke-linecap:round;stroke-miterlimit:0;stroke-dasharray:none;stroke-opacity:1"
       d="m 177.32555,87.99319 c -2.45519,-1.06942 -3.21306,-4.0455 -1.52096,-5.9727 1.60724,-1.83055 4.285,-1.89518 5.76266,-0.13908 1.77233,2.1063 0.95633,5.23181 -1.62085,6.20827 -1.02453,0.38819 -1.55277,0.36874 -2.62085,-0.0965 z"
       id="path32-58" />
    <path
       style="fill:#ffffff;fill-opacity:1;stroke:none;stroke-width:0.593187;stroke-linecap:round;stroke-miterlimit:0;stroke-dasharray:none;stroke-opacity:1"
       d="m 106.94047,95.08846 c -2.45521,-1.06941 -3.21307,-4.0455 -1.52097,-5.9727 1.60725,-1.83054 4.28501,-1.89517 5.76266,-0.13908 1.77234,2.1063 0.95633,5.23181 -1.62085,6.20828 -1.02452,0.38818 -1.55277,0.36873 -2.62084,-0.0965 z"
       id="path32-13" />
    <path
       style="fill:#ffffff;fill-opacity:1;stroke:none;stroke-width:0.593187;stroke-linecap:round;stroke-miterlimit:0;stroke-dasharray:none;stroke-opacity:1"
       d="m 125.10436,120.91525 c -2.4552,-1.06942 -3.21307,-4.04551 -1.52096,-5.97271 1.60724,-1.83055 4.285,-1.89517 5.76266,-0.13908 1.77233,2.1063 0.95632,5.23181 -1.62085,6.20828 -1.02453,0.38818 -1.55277,0.36873 -2.62085,-0.0965 z"
       id="path32-7" />
  </g>
</svg>
